<?xml version="1.0" encoding="utf-8" standalone="no"?>
<!DOCTYPE svg PUBLIC "-//W3C//DTD SVG 1.1//EN"
  "http://www.w3.org/Graphics/SVG/1.1/DTD/svg11.dtd">
<svg xmlns:xlink="http://www.w3.org/1999/xlink" width="977.670625pt" height="646.00375pt" viewBox="0 0 977.670625 646.00375" xmlns="http://www.w3.org/2000/svg" version="1.1">
 <metadata>
  <rdf:RDF xmlns:dc="http://purl.org/dc/elements/1.1/" xmlns:cc="http://creativecommons.org/ns#" xmlns:rdf="http://www.w3.org/1999/02/22-rdf-syntax-ns#">
   <cc:Work>
    <dc:type rdf:resource="http://purl.org/dc/dcmitype/StillImage"/>
    <dc:date>2025-03-29T12:40:28.944395</dc:date>
    <dc:format>image/svg+xml</dc:format>
    <dc:creator>
     <cc:Agent>
      <dc:title>Matplotlib v3.10.1, https://matplotlib.org/</dc:title>
     </cc:Agent>
    </dc:creator>
   </cc:Work>
  </rdf:RDF>
 </metadata>
 <defs>
  <style type="text/css">*{stroke-linejoin: round; stroke-linecap: butt}</style>
 </defs>
 <g id="figure_1">
  <g id="patch_1">
   <path d="M 0 646.00375 
L 977.670625 646.00375 
L 977.670625 0 
L 0 0 
z
" style="fill: #ffffff"/>
  </g>
  <g id="axes_1">
   <g id="patch_2">
    <path d="M 77.670625 581.316562 
L 970.470625 581.316562 
L 970.470625 26.916562 
L 77.670625 26.916562 
z
" style="fill: #ffffff"/>
   </g>
   <g id="patch_3">
    <path d="M 118.252443 581.316562 
L 148.88023 581.316562 
L 148.88023 576.553155 
L 118.252443 576.553155 
z
" clip-path="url(#pba143e2c2f)" style="fill: url(#hf02d580b50)"/>
   </g>
   <g id="patch_4">
    <path d="M 256.077486 581.316562 
L 286.705273 581.316562 
L 286.705273 485.956574 
L 256.077486 485.956574 
z
" clip-path="url(#pba143e2c2f)" style="fill: url(#hf02d580b50)"/>
   </g>
   <g id="patch_5">
    <path d="M 393.902529 581.316562 
L 424.530316 581.316562 
L 424.530316 469.451664 
L 393.902529 469.451664 
z
" clip-path="url(#pba143e2c2f)" style="fill: url(#hf02d580b50)"/>
   </g>
   <g id="patch_6">
    <path d="M 531.727572 581.316562 
L 562.355359 581.316562 
L 562.355359 474.613995 
L 531.727572 474.613995 
z
" clip-path="url(#pba143e2c2f)" style="fill: url(#hf02d580b50)"/>
   </g>
   <g id="patch_7">
    <path d="M 669.552615 581.316562 
L 700.180402 581.316562 
L 700.180402 432.711519 
L 669.552615 432.711519 
z
" clip-path="url(#pba143e2c2f)" style="fill: url(#hf02d580b50)"/>
   </g>
   <g id="patch_8">
    <path d="M 807.377658 581.316562 
L 838.005445 581.316562 
L 838.005445 425.232792 
L 807.377658 425.232792 
z
" clip-path="url(#pba143e2c2f)" style="fill: url(#hf02d580b50)"/>
   </g>
   <g id="patch_9">
    <path d="M 148.88023 581.316562 
L 179.508018 581.316562 
L 179.508018 576.621674 
L 148.88023 576.621674 
z
" clip-path="url(#pba143e2c2f)" style="fill: url(#h42f55e634c)"/>
   </g>
   <g id="patch_10">
    <path d="M 286.705273 581.316562 
L 317.333061 581.316562 
L 317.333061 463.302106 
L 286.705273 463.302106 
z
" clip-path="url(#pba143e2c2f)" style="fill: url(#h42f55e634c)"/>
   </g>
   <g id="patch_11">
    <path d="M 424.530316 581.316562 
L 455.158104 581.316562 
L 455.158104 435.016912 
L 424.530316 435.016912 
z
" clip-path="url(#pba143e2c2f)" style="fill: url(#h42f55e634c)"/>
   </g>
   <g id="patch_12">
    <path d="M 562.355359 581.316562 
L 592.983146 581.316562 
L 592.983146 438.470183 
L 562.355359 438.470183 
z
" clip-path="url(#pba143e2c2f)" style="fill: url(#h42f55e634c)"/>
   </g>
   <g id="patch_13">
    <path d="M 700.180402 581.316562 
L 730.808189 581.316562 
L 730.808189 380.800452 
L 700.180402 380.800452 
z
" clip-path="url(#pba143e2c2f)" style="fill: url(#h42f55e634c)"/>
   </g>
   <g id="patch_14">
    <path d="M 838.005445 581.316562 
L 868.633232 581.316562 
L 868.633232 373.206455 
L 838.005445 373.206455 
z
" clip-path="url(#pba143e2c2f)" style="fill: url(#h42f55e634c)"/>
   </g>
   <g id="patch_15">
    <path d="M 179.508018 581.316562 
L 210.135805 581.316562 
L 210.135805 572.897537 
L 179.508018 572.897537 
z
" clip-path="url(#pba143e2c2f)" style="fill: url(#h1b293f3175)"/>
   </g>
   <g id="patch_16">
    <path d="M 317.333061 581.316562 
L 347.960848 581.316562 
L 347.960848 430.749616 
L 317.333061 430.749616 
z
" clip-path="url(#pba143e2c2f)" style="fill: url(#h1b293f3175)"/>
   </g>
   <g id="patch_17">
    <path d="M 455.158104 581.316562 
L 485.785891 581.316562 
L 485.785891 374.155437 
L 455.158104 374.155437 
z
" clip-path="url(#pba143e2c2f)" style="fill: url(#h1b293f3175)"/>
   </g>
   <g id="patch_18">
    <path d="M 592.983146 581.316562 
L 623.610934 581.316562 
L 623.610934 351.763924 
L 592.983146 351.763924 
z
" clip-path="url(#pba143e2c2f)" style="fill: url(#h1b293f3175)"/>
   </g>
   <g id="patch_19">
    <path d="M 730.808189 581.316562 
L 761.435977 581.316562 
L 761.435977 194.772152 
L 730.808189 194.772152 
z
" clip-path="url(#pba143e2c2f)" style="fill: url(#h1b293f3175)"/>
   </g>
   <g id="patch_20">
    <path d="M 868.633232 581.316562 
L 899.26102 581.316562 
L 899.26102 118.34535 
L 868.633232 118.34535 
z
" clip-path="url(#pba143e2c2f)" style="fill: url(#h1b293f3175)"/>
   </g>
   <g id="patch_21">
    <path d="M 210.135805 581.316562 
L 240.763592 581.316562 
L 240.763592 573.393827 
L 210.135805 573.393827 
z
" clip-path="url(#pba143e2c2f)" style="fill: url(#h5bce9efbc7)"/>
   </g>
   <g id="patch_22">
    <path d="M 347.960848 581.316562 
L 378.588635 581.316562 
L 378.588635 406.994673 
L 347.960848 406.994673 
z
" clip-path="url(#pba143e2c2f)" style="fill: url(#h5bce9efbc7)"/>
   </g>
   <g id="patch_23">
    <path d="M 485.785891 581.316562 
L 516.413678 581.316562 
L 516.413678 352.303395 
L 485.785891 352.303395 
z
" clip-path="url(#pba143e2c2f)" style="fill: url(#h5bce9efbc7)"/>
   </g>
   <g id="patch_24">
    <path d="M 623.610934 581.316562 
L 654.238721 581.316562 
L 654.238721 320.27283 
L 623.610934 320.27283 
z
" clip-path="url(#pba143e2c2f)" style="fill: url(#h5bce9efbc7)"/>
   </g>
   <g id="patch_25">
    <path d="M 761.435977 581.316562 
L 792.063764 581.316562 
L 792.063764 151.596417 
L 761.435977 151.596417 
z
" clip-path="url(#pba143e2c2f)" style="fill: url(#h5bce9efbc7)"/>
   </g>
   <g id="patch_26">
    <path d="M 899.26102 581.316562 
L 929.888807 581.316562 
L 929.888807 53.316562 
L 899.26102 53.316562 
z
" clip-path="url(#pba143e2c2f)" style="fill: url(#h5bce9efbc7)"/>
   </g>
   <g id="matplotlib.axis_1">
    <g id="xtick_1">
     <g id="line2d_1">
      <defs>
       <path id="mdf40ce37c9" d="M 0 0 
L 0 3.5 
" style="stroke: #000000; stroke-width: 0.8"/>
      </defs>
      <g>
       <use xlink:href="#mdf40ce37c9" x="187.164965" y="581.316562" style="stroke: #000000; stroke-width: 0.8"/>
      </g>
     </g>
     <g id="text_1">
      <!-- 1 -->
      <g transform="translate(180.166215 605.033125) scale(0.22 -0.22)">
       <defs>
        <path id="DejaVuSans-31" d="M 794 531 
L 1825 531 
L 1825 4091 
L 703 3866 
L 703 4441 
L 1819 4666 
L 2450 4666 
L 2450 531 
L 3481 531 
L 3481 0 
L 794 0 
L 794 531 
z
" transform="scale(0.015625)"/>
       </defs>
       <use xlink:href="#DejaVuSans-31"/>
      </g>
     </g>
    </g>
    <g id="xtick_2">
     <g id="line2d_2">
      <g>
       <use xlink:href="#mdf40ce37c9" x="324.990008" y="581.316562" style="stroke: #000000; stroke-width: 0.8"/>
      </g>
     </g>
     <g id="text_2">
      <!-- 16 -->
      <g transform="translate(310.992508 605.033125) scale(0.22 -0.22)">
       <defs>
        <path id="DejaVuSans-36" d="M 2113 2584 
Q 1688 2584 1439 2293 
Q 1191 2003 1191 1497 
Q 1191 994 1439 701 
Q 1688 409 2113 409 
Q 2538 409 2786 701 
Q 3034 994 3034 1497 
Q 3034 2003 2786 2293 
Q 2538 2584 2113 2584 
z
M 3366 4563 
L 3366 3988 
Q 3128 4100 2886 4159 
Q 2644 4219 2406 4219 
Q 1781 4219 1451 3797 
Q 1122 3375 1075 2522 
Q 1259 2794 1537 2939 
Q 1816 3084 2150 3084 
Q 2853 3084 3261 2657 
Q 3669 2231 3669 1497 
Q 3669 778 3244 343 
Q 2819 -91 2113 -91 
Q 1303 -91 875 529 
Q 447 1150 447 2328 
Q 447 3434 972 4092 
Q 1497 4750 2381 4750 
Q 2619 4750 2861 4703 
Q 3103 4656 3366 4563 
z
" transform="scale(0.015625)"/>
       </defs>
       <use xlink:href="#DejaVuSans-31"/>
       <use xlink:href="#DejaVuSans-36" transform="translate(63.623047 0)"/>
      </g>
     </g>
    </g>
    <g id="xtick_3">
     <g id="line2d_3">
      <g>
       <use xlink:href="#mdf40ce37c9" x="462.81505" y="581.316562" style="stroke: #000000; stroke-width: 0.8"/>
      </g>
     </g>
     <g id="text_3">
      <!-- 32 -->
      <g transform="translate(448.81755 605.033125) scale(0.22 -0.22)">
       <defs>
        <path id="DejaVuSans-33" d="M 2597 2516 
Q 3050 2419 3304 2112 
Q 3559 1806 3559 1356 
Q 3559 666 3084 287 
Q 2609 -91 1734 -91 
Q 1441 -91 1130 -33 
Q 819 25 488 141 
L 488 750 
Q 750 597 1062 519 
Q 1375 441 1716 441 
Q 2309 441 2620 675 
Q 2931 909 2931 1356 
Q 2931 1769 2642 2001 
Q 2353 2234 1838 2234 
L 1294 2234 
L 1294 2753 
L 1863 2753 
Q 2328 2753 2575 2939 
Q 2822 3125 2822 3475 
Q 2822 3834 2567 4026 
Q 2313 4219 1838 4219 
Q 1578 4219 1281 4162 
Q 984 4106 628 3988 
L 628 4550 
Q 988 4650 1302 4700 
Q 1616 4750 1894 4750 
Q 2613 4750 3031 4423 
Q 3450 4097 3450 3541 
Q 3450 3153 3228 2886 
Q 3006 2619 2597 2516 
z
" transform="scale(0.015625)"/>
        <path id="DejaVuSans-32" d="M 1228 531 
L 3431 531 
L 3431 0 
L 469 0 
L 469 531 
Q 828 903 1448 1529 
Q 2069 2156 2228 2338 
Q 2531 2678 2651 2914 
Q 2772 3150 2772 3378 
Q 2772 3750 2511 3984 
Q 2250 4219 1831 4219 
Q 1534 4219 1204 4116 
Q 875 4013 500 3803 
L 500 4441 
Q 881 4594 1212 4672 
Q 1544 4750 1819 4750 
Q 2544 4750 2975 4387 
Q 3406 4025 3406 3419 
Q 3406 3131 3298 2873 
Q 3191 2616 2906 2266 
Q 2828 2175 2409 1742 
Q 1991 1309 1228 531 
z
" transform="scale(0.015625)"/>
       </defs>
       <use xlink:href="#DejaVuSans-33"/>
       <use xlink:href="#DejaVuSans-32" transform="translate(63.623047 0)"/>
      </g>
     </g>
    </g>
    <g id="xtick_4">
     <g id="line2d_4">
      <g>
       <use xlink:href="#mdf40ce37c9" x="600.640093" y="581.316562" style="stroke: #000000; stroke-width: 0.8"/>
      </g>
     </g>
     <g id="text_4">
      <!-- 64 -->
      <g transform="translate(586.642593 605.033125) scale(0.22 -0.22)">
       <defs>
        <path id="DejaVuSans-34" d="M 2419 4116 
L 825 1625 
L 2419 1625 
L 2419 4116 
z
M 2253 4666 
L 3047 4666 
L 3047 1625 
L 3713 1625 
L 3713 1100 
L 3047 1100 
L 3047 0 
L 2419 0 
L 2419 1100 
L 313 1100 
L 313 1709 
L 2253 4666 
z
" transform="scale(0.015625)"/>
       </defs>
       <use xlink:href="#DejaVuSans-36"/>
       <use xlink:href="#DejaVuSans-34" transform="translate(63.623047 0)"/>
      </g>
     </g>
    </g>
    <g id="xtick_5">
     <g id="line2d_5">
      <g>
       <use xlink:href="#mdf40ce37c9" x="738.465136" y="581.316562" style="stroke: #000000; stroke-width: 0.8"/>
      </g>
     </g>
     <g id="text_5">
      <!-- 128 -->
      <g transform="translate(717.468886 605.033125) scale(0.22 -0.22)">
       <defs>
        <path id="DejaVuSans-38" d="M 2034 2216 
Q 1584 2216 1326 1975 
Q 1069 1734 1069 1313 
Q 1069 891 1326 650 
Q 1584 409 2034 409 
Q 2484 409 2743 651 
Q 3003 894 3003 1313 
Q 3003 1734 2745 1975 
Q 2488 2216 2034 2216 
z
M 1403 2484 
Q 997 2584 770 2862 
Q 544 3141 544 3541 
Q 544 4100 942 4425 
Q 1341 4750 2034 4750 
Q 2731 4750 3128 4425 
Q 3525 4100 3525 3541 
Q 3525 3141 3298 2862 
Q 3072 2584 2669 2484 
Q 3125 2378 3379 2068 
Q 3634 1759 3634 1313 
Q 3634 634 3220 271 
Q 2806 -91 2034 -91 
Q 1263 -91 848 271 
Q 434 634 434 1313 
Q 434 1759 690 2068 
Q 947 2378 1403 2484 
z
M 1172 3481 
Q 1172 3119 1398 2916 
Q 1625 2713 2034 2713 
Q 2441 2713 2670 2916 
Q 2900 3119 2900 3481 
Q 2900 3844 2670 4047 
Q 2441 4250 2034 4250 
Q 1625 4250 1398 4047 
Q 1172 3844 1172 3481 
z
" transform="scale(0.015625)"/>
       </defs>
       <use xlink:href="#DejaVuSans-31"/>
       <use xlink:href="#DejaVuSans-32" transform="translate(63.623047 0)"/>
       <use xlink:href="#DejaVuSans-38" transform="translate(127.246094 0)"/>
      </g>
     </g>
    </g>
    <g id="xtick_6">
     <g id="line2d_6">
      <g>
       <use xlink:href="#mdf40ce37c9" x="876.290179" y="581.316562" style="stroke: #000000; stroke-width: 0.8"/>
      </g>
     </g>
     <g id="text_6">
      <!-- 256 -->
      <g transform="translate(855.293929 605.033125) scale(0.22 -0.22)">
       <defs>
        <path id="DejaVuSans-35" d="M 691 4666 
L 3169 4666 
L 3169 4134 
L 1269 4134 
L 1269 2991 
Q 1406 3038 1543 3061 
Q 1681 3084 1819 3084 
Q 2600 3084 3056 2656 
Q 3513 2228 3513 1497 
Q 3513 744 3044 326 
Q 2575 -91 1722 -91 
Q 1428 -91 1123 -41 
Q 819 9 494 109 
L 494 744 
Q 775 591 1075 516 
Q 1375 441 1709 441 
Q 2250 441 2565 725 
Q 2881 1009 2881 1497 
Q 2881 1984 2565 2268 
Q 2250 2553 1709 2553 
Q 1456 2553 1204 2497 
Q 953 2441 691 2322 
L 691 4666 
z
" transform="scale(0.015625)"/>
       </defs>
       <use xlink:href="#DejaVuSans-32"/>
       <use xlink:href="#DejaVuSans-35" transform="translate(63.623047 0)"/>
       <use xlink:href="#DejaVuSans-36" transform="translate(127.246094 0)"/>
      </g>
     </g>
    </g>
    <g id="text_7">
     <!-- Threads -->
     <g transform="translate(467.18 633.604531) scale(0.25 -0.25)">
      <defs>
       <path id="DejaVuSans-Bold-54" d="M 31 4666 
L 4331 4666 
L 4331 3756 
L 2784 3756 
L 2784 0 
L 1581 0 
L 1581 3756 
L 31 3756 
L 31 4666 
z
" transform="scale(0.015625)"/>
       <path id="DejaVuSans-Bold-68" d="M 4056 2131 
L 4056 0 
L 2931 0 
L 2931 347 
L 2931 1625 
Q 2931 2084 2911 2256 
Q 2891 2428 2841 2509 
Q 2775 2619 2662 2680 
Q 2550 2741 2406 2741 
Q 2056 2741 1856 2470 
Q 1656 2200 1656 1722 
L 1656 0 
L 538 0 
L 538 4863 
L 1656 4863 
L 1656 2988 
Q 1909 3294 2193 3439 
Q 2478 3584 2822 3584 
Q 3428 3584 3742 3212 
Q 4056 2841 4056 2131 
z
" transform="scale(0.015625)"/>
       <path id="DejaVuSans-Bold-72" d="M 3138 2547 
Q 2991 2616 2845 2648 
Q 2700 2681 2553 2681 
Q 2122 2681 1889 2404 
Q 1656 2128 1656 1613 
L 1656 0 
L 538 0 
L 538 3500 
L 1656 3500 
L 1656 2925 
Q 1872 3269 2151 3426 
Q 2431 3584 2822 3584 
Q 2878 3584 2943 3579 
Q 3009 3575 3134 3559 
L 3138 2547 
z
" transform="scale(0.015625)"/>
       <path id="DejaVuSans-Bold-65" d="M 4031 1759 
L 4031 1441 
L 1416 1441 
Q 1456 1047 1700 850 
Q 1944 653 2381 653 
Q 2734 653 3104 758 
Q 3475 863 3866 1075 
L 3866 213 
Q 3469 63 3072 -14 
Q 2675 -91 2278 -91 
Q 1328 -91 801 392 
Q 275 875 275 1747 
Q 275 2603 792 3093 
Q 1309 3584 2216 3584 
Q 3041 3584 3536 3087 
Q 4031 2591 4031 1759 
z
M 2881 2131 
Q 2881 2450 2695 2645 
Q 2509 2841 2209 2841 
Q 1884 2841 1681 2658 
Q 1478 2475 1428 2131 
L 2881 2131 
z
" transform="scale(0.015625)"/>
       <path id="DejaVuSans-Bold-61" d="M 2106 1575 
Q 1756 1575 1579 1456 
Q 1403 1338 1403 1106 
Q 1403 894 1545 773 
Q 1688 653 1941 653 
Q 2256 653 2472 879 
Q 2688 1106 2688 1447 
L 2688 1575 
L 2106 1575 
z
M 3816 1997 
L 3816 0 
L 2688 0 
L 2688 519 
Q 2463 200 2181 54 
Q 1900 -91 1497 -91 
Q 953 -91 614 226 
Q 275 544 275 1050 
Q 275 1666 698 1953 
Q 1122 2241 2028 2241 
L 2688 2241 
L 2688 2328 
Q 2688 2594 2478 2717 
Q 2269 2841 1825 2841 
Q 1466 2841 1156 2769 
Q 847 2697 581 2553 
L 581 3406 
Q 941 3494 1303 3539 
Q 1666 3584 2028 3584 
Q 2975 3584 3395 3211 
Q 3816 2838 3816 1997 
z
" transform="scale(0.015625)"/>
       <path id="DejaVuSans-Bold-64" d="M 2919 2988 
L 2919 4863 
L 4044 4863 
L 4044 0 
L 2919 0 
L 2919 506 
Q 2688 197 2409 53 
Q 2131 -91 1766 -91 
Q 1119 -91 703 423 
Q 288 938 288 1747 
Q 288 2556 703 3070 
Q 1119 3584 1766 3584 
Q 2128 3584 2408 3439 
Q 2688 3294 2919 2988 
z
M 2181 722 
Q 2541 722 2730 984 
Q 2919 1247 2919 1747 
Q 2919 2247 2730 2509 
Q 2541 2772 2181 2772 
Q 1825 2772 1636 2509 
Q 1447 2247 1447 1747 
Q 1447 1247 1636 984 
Q 1825 722 2181 722 
z
" transform="scale(0.015625)"/>
       <path id="DejaVuSans-Bold-73" d="M 3272 3391 
L 3272 2541 
Q 2913 2691 2578 2766 
Q 2244 2841 1947 2841 
Q 1628 2841 1473 2761 
Q 1319 2681 1319 2516 
Q 1319 2381 1436 2309 
Q 1553 2238 1856 2203 
L 2053 2175 
Q 2913 2066 3209 1816 
Q 3506 1566 3506 1031 
Q 3506 472 3093 190 
Q 2681 -91 1863 -91 
Q 1516 -91 1145 -36 
Q 775 19 384 128 
L 384 978 
Q 719 816 1070 734 
Q 1422 653 1784 653 
Q 2113 653 2278 743 
Q 2444 834 2444 1013 
Q 2444 1163 2330 1236 
Q 2216 1309 1875 1350 
L 1678 1375 
Q 931 1469 631 1722 
Q 331 1975 331 2491 
Q 331 3047 712 3315 
Q 1094 3584 1881 3584 
Q 2191 3584 2531 3537 
Q 2872 3491 3272 3391 
z
" transform="scale(0.015625)"/>
      </defs>
      <use xlink:href="#DejaVuSans-Bold-54"/>
      <use xlink:href="#DejaVuSans-Bold-68" transform="translate(68.212891 0)"/>
      <use xlink:href="#DejaVuSans-Bold-72" transform="translate(139.404297 0)"/>
      <use xlink:href="#DejaVuSans-Bold-65" transform="translate(188.720703 0)"/>
      <use xlink:href="#DejaVuSans-Bold-61" transform="translate(256.542969 0)"/>
      <use xlink:href="#DejaVuSans-Bold-64" transform="translate(324.023438 0)"/>
      <use xlink:href="#DejaVuSans-Bold-73" transform="translate(395.605469 0)"/>
     </g>
    </g>
   </g>
   <g id="matplotlib.axis_2">
    <g id="ytick_1">
     <g id="line2d_7">
      <defs>
       <path id="mb871377127" d="M 0 0 
L -3.5 0 
" style="stroke: #000000; stroke-width: 0.8"/>
      </defs>
      <g>
       <use xlink:href="#mb871377127" x="77.670625" y="581.316562" style="stroke: #000000; stroke-width: 0.8"/>
      </g>
     </g>
     <g id="text_8">
      <!-- $\mathdefault{0}$ -->
      <g transform="translate(56.590625 589.674844) scale(0.22 -0.22)">
       <defs>
        <path id="DejaVuSans-30" d="M 2034 4250 
Q 1547 4250 1301 3770 
Q 1056 3291 1056 2328 
Q 1056 1369 1301 889 
Q 1547 409 2034 409 
Q 2525 409 2770 889 
Q 3016 1369 3016 2328 
Q 3016 3291 2770 3770 
Q 2525 4250 2034 4250 
z
M 2034 4750 
Q 2819 4750 3233 4129 
Q 3647 3509 3647 2328 
Q 3647 1150 3233 529 
Q 2819 -91 2034 -91 
Q 1250 -91 836 529 
Q 422 1150 422 2328 
Q 422 3509 836 4129 
Q 1250 4750 2034 4750 
z
" transform="scale(0.015625)"/>
       </defs>
       <use xlink:href="#DejaVuSans-30" transform="translate(0 0.78125)"/>
      </g>
     </g>
    </g>
    <g id="ytick_2">
     <g id="line2d_8">
      <g>
       <use xlink:href="#mb871377127" x="77.670625" y="462.35925" style="stroke: #000000; stroke-width: 0.8"/>
      </g>
     </g>
     <g id="text_9">
      <!-- $\mathdefault{2}$ -->
      <g transform="translate(56.590625 470.717532) scale(0.22 -0.22)">
       <use xlink:href="#DejaVuSans-32" transform="translate(0 0.78125)"/>
      </g>
     </g>
    </g>
    <g id="ytick_3">
     <g id="line2d_9">
      <g>
       <use xlink:href="#mb871377127" x="77.670625" y="343.401938" style="stroke: #000000; stroke-width: 0.8"/>
      </g>
     </g>
     <g id="text_10">
      <!-- $\mathdefault{4}$ -->
      <g transform="translate(56.590625 351.76022) scale(0.22 -0.22)">
       <use xlink:href="#DejaVuSans-34" transform="translate(0 0.09375)"/>
      </g>
     </g>
    </g>
    <g id="ytick_4">
     <g id="line2d_10">
      <g>
       <use xlink:href="#mb871377127" x="77.670625" y="224.444626" style="stroke: #000000; stroke-width: 0.8"/>
      </g>
     </g>
     <g id="text_11">
      <!-- $\mathdefault{6}$ -->
      <g transform="translate(56.590625 232.802907) scale(0.22 -0.22)">
       <use xlink:href="#DejaVuSans-36" transform="translate(0 0.78125)"/>
      </g>
     </g>
    </g>
    <g id="ytick_5">
     <g id="line2d_11">
      <g>
       <use xlink:href="#mb871377127" x="77.670625" y="105.487314" style="stroke: #000000; stroke-width: 0.8"/>
      </g>
     </g>
     <g id="text_12">
      <!-- $\mathdefault{8}$ -->
      <g transform="translate(56.590625 113.845595) scale(0.22 -0.22)">
       <use xlink:href="#DejaVuSans-38" transform="translate(0 0.78125)"/>
      </g>
     </g>
    </g>
    <g id="text_13">
     <!-- Throughput, ops/sec -->
     <g transform="translate(26.196094 448.8275) rotate(-90) scale(0.25 -0.25)">
      <defs>
       <path id="DejaVuSans-Bold-6f" d="M 2203 2784 
Q 1831 2784 1636 2517 
Q 1441 2250 1441 1747 
Q 1441 1244 1636 976 
Q 1831 709 2203 709 
Q 2569 709 2762 976 
Q 2956 1244 2956 1747 
Q 2956 2250 2762 2517 
Q 2569 2784 2203 2784 
z
M 2203 3584 
Q 3106 3584 3614 3096 
Q 4122 2609 4122 1747 
Q 4122 884 3614 396 
Q 3106 -91 2203 -91 
Q 1297 -91 786 396 
Q 275 884 275 1747 
Q 275 2609 786 3096 
Q 1297 3584 2203 3584 
z
" transform="scale(0.015625)"/>
       <path id="DejaVuSans-Bold-75" d="M 500 1363 
L 500 3500 
L 1625 3500 
L 1625 3150 
Q 1625 2866 1622 2436 
Q 1619 2006 1619 1863 
Q 1619 1441 1641 1255 
Q 1663 1069 1716 984 
Q 1784 875 1895 815 
Q 2006 756 2150 756 
Q 2500 756 2700 1025 
Q 2900 1294 2900 1772 
L 2900 3500 
L 4019 3500 
L 4019 0 
L 2900 0 
L 2900 506 
Q 2647 200 2364 54 
Q 2081 -91 1741 -91 
Q 1134 -91 817 281 
Q 500 653 500 1363 
z
" transform="scale(0.015625)"/>
       <path id="DejaVuSans-Bold-67" d="M 2919 594 
Q 2688 288 2409 144 
Q 2131 0 1766 0 
Q 1125 0 706 504 
Q 288 1009 288 1791 
Q 288 2575 706 3076 
Q 1125 3578 1766 3578 
Q 2131 3578 2409 3434 
Q 2688 3291 2919 2981 
L 2919 3500 
L 4044 3500 
L 4044 353 
Q 4044 -491 3511 -936 
Q 2978 -1381 1966 -1381 
Q 1638 -1381 1331 -1331 
Q 1025 -1281 716 -1178 
L 716 -306 
Q 1009 -475 1290 -558 
Q 1572 -641 1856 -641 
Q 2406 -641 2662 -400 
Q 2919 -159 2919 353 
L 2919 594 
z
M 2181 2772 
Q 1834 2772 1640 2515 
Q 1447 2259 1447 1791 
Q 1447 1309 1634 1061 
Q 1822 813 2181 813 
Q 2531 813 2725 1069 
Q 2919 1325 2919 1791 
Q 2919 2259 2725 2515 
Q 2531 2772 2181 2772 
z
" transform="scale(0.015625)"/>
       <path id="DejaVuSans-Bold-70" d="M 1656 506 
L 1656 -1331 
L 538 -1331 
L 538 3500 
L 1656 3500 
L 1656 2988 
Q 1888 3294 2169 3439 
Q 2450 3584 2816 3584 
Q 3463 3584 3878 3070 
Q 4294 2556 4294 1747 
Q 4294 938 3878 423 
Q 3463 -91 2816 -91 
Q 2450 -91 2169 54 
Q 1888 200 1656 506 
z
M 2400 2772 
Q 2041 2772 1848 2508 
Q 1656 2244 1656 1747 
Q 1656 1250 1848 986 
Q 2041 722 2400 722 
Q 2759 722 2948 984 
Q 3138 1247 3138 1747 
Q 3138 2247 2948 2509 
Q 2759 2772 2400 2772 
z
" transform="scale(0.015625)"/>
       <path id="DejaVuSans-Bold-74" d="M 1759 4494 
L 1759 3500 
L 2913 3500 
L 2913 2700 
L 1759 2700 
L 1759 1216 
Q 1759 972 1856 886 
Q 1953 800 2241 800 
L 2816 800 
L 2816 0 
L 1856 0 
Q 1194 0 917 276 
Q 641 553 641 1216 
L 641 2700 
L 84 2700 
L 84 3500 
L 641 3500 
L 641 4494 
L 1759 4494 
z
" transform="scale(0.015625)"/>
       <path id="DejaVuSans-Bold-2c" d="M 653 1209 
L 1778 1209 
L 1778 256 
L 1006 -909 
L 341 -909 
L 653 256 
L 653 1209 
z
" transform="scale(0.015625)"/>
       <path id="DejaVuSans-Bold-20" transform="scale(0.015625)"/>
       <path id="DejaVuSans-Bold-2f" d="M 1644 4666 
L 2338 4666 
L 691 -594 
L 0 -594 
L 1644 4666 
z
" transform="scale(0.015625)"/>
       <path id="DejaVuSans-Bold-63" d="M 3366 3391 
L 3366 2478 
Q 3138 2634 2908 2709 
Q 2678 2784 2431 2784 
Q 1963 2784 1702 2511 
Q 1441 2238 1441 1747 
Q 1441 1256 1702 982 
Q 1963 709 2431 709 
Q 2694 709 2930 787 
Q 3166 866 3366 1019 
L 3366 103 
Q 3103 6 2833 -42 
Q 2563 -91 2291 -91 
Q 1344 -91 809 395 
Q 275 881 275 1747 
Q 275 2613 809 3098 
Q 1344 3584 2291 3584 
Q 2566 3584 2833 3536 
Q 3100 3488 3366 3391 
z
" transform="scale(0.015625)"/>
      </defs>
      <use xlink:href="#DejaVuSans-Bold-54"/>
      <use xlink:href="#DejaVuSans-Bold-68" transform="translate(68.212891 0)"/>
      <use xlink:href="#DejaVuSans-Bold-72" transform="translate(139.404297 0)"/>
      <use xlink:href="#DejaVuSans-Bold-6f" transform="translate(188.720703 0)"/>
      <use xlink:href="#DejaVuSans-Bold-75" transform="translate(257.421875 0)"/>
      <use xlink:href="#DejaVuSans-Bold-67" transform="translate(328.613281 0)"/>
      <use xlink:href="#DejaVuSans-Bold-68" transform="translate(400.195312 0)"/>
      <use xlink:href="#DejaVuSans-Bold-70" transform="translate(471.386719 0)"/>
      <use xlink:href="#DejaVuSans-Bold-75" transform="translate(542.96875 0)"/>
      <use xlink:href="#DejaVuSans-Bold-74" transform="translate(614.160156 0)"/>
      <use xlink:href="#DejaVuSans-Bold-2c" transform="translate(661.962891 0)"/>
      <use xlink:href="#DejaVuSans-Bold-20" transform="translate(699.951172 0)"/>
      <use xlink:href="#DejaVuSans-Bold-6f" transform="translate(734.765625 0)"/>
      <use xlink:href="#DejaVuSans-Bold-70" transform="translate(803.466797 0)"/>
      <use xlink:href="#DejaVuSans-Bold-73" transform="translate(875.048828 0)"/>
      <use xlink:href="#DejaVuSans-Bold-2f" transform="translate(934.570312 0)"/>
      <use xlink:href="#DejaVuSans-Bold-73" transform="translate(971.09375 0)"/>
      <use xlink:href="#DejaVuSans-Bold-65" transform="translate(1030.615234 0)"/>
      <use xlink:href="#DejaVuSans-Bold-63" transform="translate(1098.4375 0)"/>
     </g>
    </g>
    <g id="text_14">
     <!-- $\times\mathdefault{10^{6}}\mathdefault{}$ -->
     <g transform="translate(77.670625 23.916562) scale(0.22 -0.22)">
      <defs>
       <path id="DejaVuSans-d7" d="M 4488 3438 
L 3059 2003 
L 4488 575 
L 4116 197 
L 2681 1631 
L 1247 197 
L 878 575 
L 2303 2003 
L 878 3438 
L 1247 3816 
L 2681 2381 
L 4116 3816 
L 4488 3438 
z
" transform="scale(0.015625)"/>
      </defs>
      <use xlink:href="#DejaVuSans-d7" transform="translate(0 0.765625)"/>
      <use xlink:href="#DejaVuSans-31" transform="translate(83.789062 0.765625)"/>
      <use xlink:href="#DejaVuSans-30" transform="translate(147.412109 0.765625)"/>
      <use xlink:href="#DejaVuSans-36" transform="translate(211.992188 39.046875) scale(0.7)"/>
     </g>
    </g>
   </g>
   <g id="patch_27">
    <path d="M 77.670625 581.316562 
L 77.670625 26.916562 
" style="fill: none; stroke: #000000; stroke-width: 0.8; stroke-linejoin: miter; stroke-linecap: square"/>
   </g>
   <g id="patch_28">
    <path d="M 970.470625 581.316562 
L 970.470625 26.916562 
" style="fill: none; stroke: #000000; stroke-width: 0.8; stroke-linejoin: miter; stroke-linecap: square"/>
   </g>
   <g id="patch_29">
    <path d="M 77.670625 581.316562 
L 970.470625 581.316562 
" style="fill: none; stroke: #000000; stroke-width: 0.8; stroke-linejoin: miter; stroke-linecap: square"/>
   </g>
   <g id="patch_30">
    <path d="M 77.670625 26.916562 
L 970.470625 26.916562 
" style="fill: none; stroke: #000000; stroke-width: 0.8; stroke-linejoin: miter; stroke-linecap: square"/>
   </g>
   <g id="legend_1">
    <g id="patch_31">
     <path d="M 85.670625 137.527813 
L 343.335313 137.527813 
L 343.335313 34.916563 
L 85.670625 34.916563 
z
" style="fill: #ffffff; opacity: 0.8; stroke-dasharray: 5.55,2.4; stroke-dashoffset: 0; stroke: #000000; stroke-width: 1.5; stroke-linejoin: miter"/>
    </g>
    <g id="patch_32">
     <path d="M 92.070625 54.233906 
L 124.070625 54.233906 
L 124.070625 43.033906 
L 92.070625 43.033906 
z
" style="fill: url(#hf02d580b50)"/>
    </g>
    <g id="text_15">
     <!-- List-HP -->
     <g transform="translate(148.070625 54.233906) scale(0.17 -0.17)">
      <defs>
       <path id="DejaVuSans-Bold-4c" d="M 588 4666 
L 1791 4666 
L 1791 909 
L 3903 909 
L 3903 0 
L 588 0 
L 588 4666 
z
" transform="scale(0.015625)"/>
       <path id="DejaVuSans-Bold-69" d="M 538 3500 
L 1656 3500 
L 1656 0 
L 538 0 
L 538 3500 
z
M 538 4863 
L 1656 4863 
L 1656 3950 
L 538 3950 
L 538 4863 
z
" transform="scale(0.015625)"/>
       <path id="DejaVuSans-Bold-2d" d="M 347 2297 
L 2309 2297 
L 2309 1388 
L 347 1388 
L 347 2297 
z
" transform="scale(0.015625)"/>
       <path id="DejaVuSans-Bold-48" d="M 588 4666 
L 1791 4666 
L 1791 2888 
L 3566 2888 
L 3566 4666 
L 4769 4666 
L 4769 0 
L 3566 0 
L 3566 1978 
L 1791 1978 
L 1791 0 
L 588 0 
L 588 4666 
z
" transform="scale(0.015625)"/>
       <path id="DejaVuSans-Bold-50" d="M 588 4666 
L 2584 4666 
Q 3475 4666 3951 4270 
Q 4428 3875 4428 3144 
Q 4428 2409 3951 2014 
Q 3475 1619 2584 1619 
L 1791 1619 
L 1791 0 
L 588 0 
L 588 4666 
z
M 1791 3794 
L 1791 2491 
L 2456 2491 
Q 2806 2491 2997 2661 
Q 3188 2831 3188 3144 
Q 3188 3456 2997 3625 
Q 2806 3794 2456 3794 
L 1791 3794 
z
" transform="scale(0.015625)"/>
      </defs>
      <use xlink:href="#DejaVuSans-Bold-4c"/>
      <use xlink:href="#DejaVuSans-Bold-69" transform="translate(63.720703 0)"/>
      <use xlink:href="#DejaVuSans-Bold-73" transform="translate(97.998047 0)"/>
      <use xlink:href="#DejaVuSans-Bold-74" transform="translate(157.519531 0)"/>
      <use xlink:href="#DejaVuSans-Bold-2d" transform="translate(205.322266 0)"/>
      <use xlink:href="#DejaVuSans-Bold-48" transform="translate(246.826172 0)"/>
      <use xlink:href="#DejaVuSans-Bold-50" transform="translate(330.517578 0)"/>
     </g>
    </g>
    <g id="patch_33">
     <path d="M 92.070625 78.686719 
L 124.070625 78.686719 
L 124.070625 67.486719 
L 92.070625 67.486719 
z
" style="fill: url(#h42f55e634c)"/>
    </g>
    <g id="text_16">
     <!-- List-ABA-HP (New) -->
     <g transform="translate(148.070625 78.686719) scale(0.17 -0.17)">
      <defs>
       <path id="DejaVuSans-Bold-41" d="M 3419 850 
L 1538 850 
L 1241 0 
L 31 0 
L 1759 4666 
L 3194 4666 
L 4922 0 
L 3713 0 
L 3419 850 
z
M 1838 1716 
L 3116 1716 
L 2478 3572 
L 1838 1716 
z
" transform="scale(0.015625)"/>
       <path id="DejaVuSans-Bold-42" d="M 2456 2859 
Q 2741 2859 2887 2984 
Q 3034 3109 3034 3353 
Q 3034 3594 2887 3720 
Q 2741 3847 2456 3847 
L 1791 3847 
L 1791 2859 
L 2456 2859 
z
M 2497 819 
Q 2859 819 3042 972 
Q 3225 1125 3225 1434 
Q 3225 1738 3044 1889 
Q 2863 2041 2497 2041 
L 1791 2041 
L 1791 819 
L 2497 819 
z
M 3616 2497 
Q 4003 2384 4215 2081 
Q 4428 1778 4428 1338 
Q 4428 663 3972 331 
Q 3516 0 2584 0 
L 588 0 
L 588 4666 
L 2394 4666 
Q 3366 4666 3802 4372 
Q 4238 4078 4238 3431 
Q 4238 3091 4078 2852 
Q 3919 2613 3616 2497 
z
" transform="scale(0.015625)"/>
       <path id="DejaVuSans-Bold-28" d="M 2413 -844 
L 1484 -844 
Q 1006 -72 778 623 
Q 550 1319 550 2003 
Q 550 2688 779 3389 
Q 1009 4091 1484 4856 
L 2413 4856 
Q 2013 4116 1813 3408 
Q 1613 2700 1613 2009 
Q 1613 1319 1811 609 
Q 2009 -100 2413 -844 
z
" transform="scale(0.015625)"/>
       <path id="DejaVuSans-Bold-4e" d="M 588 4666 
L 1931 4666 
L 3628 1466 
L 3628 4666 
L 4769 4666 
L 4769 0 
L 3425 0 
L 1728 3200 
L 1728 0 
L 588 0 
L 588 4666 
z
" transform="scale(0.015625)"/>
       <path id="DejaVuSans-Bold-77" d="M 225 3500 
L 1313 3500 
L 1900 1088 
L 2491 3500 
L 3425 3500 
L 4013 1113 
L 4603 3500 
L 5691 3500 
L 4769 0 
L 3547 0 
L 2956 2406 
L 2369 0 
L 1147 0 
L 225 3500 
z
" transform="scale(0.015625)"/>
       <path id="DejaVuSans-Bold-29" d="M 513 -844 
Q 913 -100 1113 609 
Q 1313 1319 1313 2009 
Q 1313 2700 1113 3408 
Q 913 4116 513 4856 
L 1441 4856 
Q 1916 4091 2145 3389 
Q 2375 2688 2375 2003 
Q 2375 1319 2147 623 
Q 1919 -72 1441 -844 
L 513 -844 
z
" transform="scale(0.015625)"/>
      </defs>
      <use xlink:href="#DejaVuSans-Bold-4c"/>
      <use xlink:href="#DejaVuSans-Bold-69" transform="translate(63.720703 0)"/>
      <use xlink:href="#DejaVuSans-Bold-73" transform="translate(97.998047 0)"/>
      <use xlink:href="#DejaVuSans-Bold-74" transform="translate(157.519531 0)"/>
      <use xlink:href="#DejaVuSans-Bold-2d" transform="translate(205.322266 0)"/>
      <use xlink:href="#DejaVuSans-Bold-41" transform="translate(246.826172 0)"/>
      <use xlink:href="#DejaVuSans-Bold-42" transform="translate(324.21875 0)"/>
      <use xlink:href="#DejaVuSans-Bold-41" transform="translate(400.439453 0)"/>
      <use xlink:href="#DejaVuSans-Bold-2d" transform="translate(477.832031 0)"/>
      <use xlink:href="#DejaVuSans-Bold-48" transform="translate(519.335938 0)"/>
      <use xlink:href="#DejaVuSans-Bold-50" transform="translate(603.027344 0)"/>
      <use xlink:href="#DejaVuSans-Bold-20" transform="translate(676.318359 0)"/>
      <use xlink:href="#DejaVuSans-Bold-28" transform="translate(711.132812 0)"/>
      <use xlink:href="#DejaVuSans-Bold-4e" transform="translate(756.835938 0)"/>
      <use xlink:href="#DejaVuSans-Bold-65" transform="translate(840.527344 0)"/>
      <use xlink:href="#DejaVuSans-Bold-77" transform="translate(908.349609 0)"/>
      <use xlink:href="#DejaVuSans-Bold-29" transform="translate(1000.732422 0)"/>
     </g>
    </g>
    <g id="patch_34">
     <path d="M 92.070625 103.139531 
L 124.070625 103.139531 
L 124.070625 91.939531 
L 92.070625 91.939531 
z
" style="fill: url(#h1b293f3175)"/>
    </g>
    <g id="text_17">
     <!-- List-EBR -->
     <g transform="translate(148.070625 103.139531) scale(0.17 -0.17)">
      <defs>
       <path id="DejaVuSans-Bold-45" d="M 588 4666 
L 3834 4666 
L 3834 3756 
L 1791 3756 
L 1791 2888 
L 3713 2888 
L 3713 1978 
L 1791 1978 
L 1791 909 
L 3903 909 
L 3903 0 
L 588 0 
L 588 4666 
z
" transform="scale(0.015625)"/>
       <path id="DejaVuSans-Bold-52" d="M 2297 2597 
Q 2675 2597 2839 2737 
Q 3003 2878 3003 3200 
Q 3003 3519 2839 3656 
Q 2675 3794 2297 3794 
L 1791 3794 
L 1791 2597 
L 2297 2597 
z
M 1791 1766 
L 1791 0 
L 588 0 
L 588 4666 
L 2425 4666 
Q 3347 4666 3776 4356 
Q 4206 4047 4206 3378 
Q 4206 2916 3982 2619 
Q 3759 2322 3309 2181 
Q 3556 2125 3751 1926 
Q 3947 1728 4147 1325 
L 4800 0 
L 3519 0 
L 2950 1159 
Q 2778 1509 2601 1637 
Q 2425 1766 2131 1766 
L 1791 1766 
z
" transform="scale(0.015625)"/>
      </defs>
      <use xlink:href="#DejaVuSans-Bold-4c"/>
      <use xlink:href="#DejaVuSans-Bold-69" transform="translate(63.720703 0)"/>
      <use xlink:href="#DejaVuSans-Bold-73" transform="translate(97.998047 0)"/>
      <use xlink:href="#DejaVuSans-Bold-74" transform="translate(157.519531 0)"/>
      <use xlink:href="#DejaVuSans-Bold-2d" transform="translate(205.322266 0)"/>
      <use xlink:href="#DejaVuSans-Bold-45" transform="translate(246.826172 0)"/>
      <use xlink:href="#DejaVuSans-Bold-42" transform="translate(315.136719 0)"/>
      <use xlink:href="#DejaVuSans-Bold-52" transform="translate(391.357422 0)"/>
     </g>
    </g>
    <g id="patch_35">
     <path d="M 92.070625 127.592344 
L 124.070625 127.592344 
L 124.070625 116.392344 
L 92.070625 116.392344 
z
" style="fill: url(#h5bce9efbc7)"/>
    </g>
    <g id="text_18">
     <!-- List-ABA-EBR (New) -->
     <g transform="translate(148.070625 127.592344) scale(0.17 -0.17)">
      <use xlink:href="#DejaVuSans-Bold-4c"/>
      <use xlink:href="#DejaVuSans-Bold-69" transform="translate(63.720703 0)"/>
      <use xlink:href="#DejaVuSans-Bold-73" transform="translate(97.998047 0)"/>
      <use xlink:href="#DejaVuSans-Bold-74" transform="translate(157.519531 0)"/>
      <use xlink:href="#DejaVuSans-Bold-2d" transform="translate(205.322266 0)"/>
      <use xlink:href="#DejaVuSans-Bold-41" transform="translate(246.826172 0)"/>
      <use xlink:href="#DejaVuSans-Bold-42" transform="translate(324.21875 0)"/>
      <use xlink:href="#DejaVuSans-Bold-41" transform="translate(400.439453 0)"/>
      <use xlink:href="#DejaVuSans-Bold-2d" transform="translate(477.832031 0)"/>
      <use xlink:href="#DejaVuSans-Bold-45" transform="translate(519.335938 0)"/>
      <use xlink:href="#DejaVuSans-Bold-42" transform="translate(587.646484 0)"/>
      <use xlink:href="#DejaVuSans-Bold-52" transform="translate(663.867188 0)"/>
      <use xlink:href="#DejaVuSans-Bold-20" transform="translate(740.869141 0)"/>
      <use xlink:href="#DejaVuSans-Bold-28" transform="translate(775.683594 0)"/>
      <use xlink:href="#DejaVuSans-Bold-4e" transform="translate(821.386719 0)"/>
      <use xlink:href="#DejaVuSans-Bold-65" transform="translate(905.078125 0)"/>
      <use xlink:href="#DejaVuSans-Bold-77" transform="translate(972.900391 0)"/>
      <use xlink:href="#DejaVuSans-Bold-29" transform="translate(1065.283203 0)"/>
     </g>
    </g>
   </g>
  </g>
 </g>
 <defs>
  <clipPath id="pba143e2c2f">
   <rect x="77.670625" y="26.916562" width="892.8" height="554.4"/>
  </clipPath>
 </defs>
 <defs>
  <pattern id="hf02d580b50" patternUnits="userSpaceOnUse" x="0" y="0" width="72" height="72">
   <rect x="0" y="0" width="73" height="73" fill="#ffd700"/>
   <path d="M 0 66 
L 72 66 
M 0 54 
L 72 54 
M 0 42 
L 72 42 
M 0 30 
L 72 30 
M 0 18 
L 72 18 
M 0 6 
L 72 6 
" style="fill: #000000; stroke: #000000; stroke-width: 1.0; stroke-linecap: butt; stroke-linejoin: miter"/>
  </pattern>
  <pattern id="h42f55e634c" patternUnits="userSpaceOnUse" x="0" y="0" width="72" height="72">
   <rect x="0" y="0" width="73" height="73" fill="#008000"/>
   <path d="M -36 36 
L 36 108 
M -24 24 
L 48 96 
M -12 12 
L 60 84 
M 0 0 
L 72 72 
M 12 -12 
L 84 60 
M 24 -24 
L 96 48 
M 36 -36 
L 108 36 
" style="fill: #000000; stroke: #000000; stroke-width: 1.0; stroke-linecap: butt; stroke-linejoin: miter"/>
  </pattern>
  <pattern id="h1b293f3175" patternUnits="userSpaceOnUse" x="0" y="0" width="72" height="72">
   <rect x="0" y="0" width="73" height="73" fill="#bf00bf"/>
   <path d="M -36 36 
L 36 -36 
M -24 48 
L 48 -24 
M -12 60 
L 60 -12 
M 0 72 
L 72 0 
M 12 84 
L 84 12 
M 24 96 
L 96 24 
M 36 108 
L 108 36 
" style="fill: #000000; stroke: #000000; stroke-width: 1.0; stroke-linecap: butt; stroke-linejoin: miter"/>
  </pattern>
  <pattern id="h5bce9efbc7" patternUnits="userSpaceOnUse" x="0" y="0" width="72" height="72">
   <rect x="0" y="0" width="73" height="73" fill="#00bfbf"/>
   <path d="M 0 68 
L -1.175571 70.381966 
L -3.804226 70.763932 
L -1.902113 72.618034 
L -2.351141 75.236068 
L -0 74 
L 2.351141 75.236068 
L 1.902113 72.618034 
L 3.804226 70.763932 
L 1.175571 70.381966 
L 0 68 
M 12 68 
L 10.824429 70.381966 
L 8.195774 70.763932 
L 10.097887 72.618034 
L 9.648859 75.236068 
L 12 74 
L 14.351141 75.236068 
L 13.902113 72.618034 
L 15.804226 70.763932 
L 13.175571 70.381966 
L 12 68 
M 24 68 
L 22.824429 70.381966 
L 20.195774 70.763932 
L 22.097887 72.618034 
L 21.648859 75.236068 
L 24 74 
L 26.351141 75.236068 
L 25.902113 72.618034 
L 27.804226 70.763932 
L 25.175571 70.381966 
L 24 68 
M 36 68 
L 34.824429 70.381966 
L 32.195774 70.763932 
L 34.097887 72.618034 
L 33.648859 75.236068 
L 36 74 
L 38.351141 75.236068 
L 37.902113 72.618034 
L 39.804226 70.763932 
L 37.175571 70.381966 
L 36 68 
M 48 68 
L 46.824429 70.381966 
L 44.195774 70.763932 
L 46.097887 72.618034 
L 45.648859 75.236068 
L 48 74 
L 50.351141 75.236068 
L 49.902113 72.618034 
L 51.804226 70.763932 
L 49.175571 70.381966 
L 48 68 
M 60 68 
L 58.824429 70.381966 
L 56.195774 70.763932 
L 58.097887 72.618034 
L 57.648859 75.236068 
L 60 74 
L 62.351141 75.236068 
L 61.902113 72.618034 
L 63.804226 70.763932 
L 61.175571 70.381966 
L 60 68 
M 72 68 
L 70.824429 70.381966 
L 68.195774 70.763932 
L 70.097887 72.618034 
L 69.648859 75.236068 
L 72 74 
L 74.351141 75.236068 
L 73.902113 72.618034 
L 75.804226 70.763932 
L 73.175571 70.381966 
L 72 68 
M 6 56 
L 4.824429 58.381966 
L 2.195774 58.763932 
L 4.097887 60.618034 
L 3.648859 63.236068 
L 6 62 
L 8.351141 63.236068 
L 7.902113 60.618034 
L 9.804226 58.763932 
L 7.175571 58.381966 
L 6 56 
M 18 56 
L 16.824429 58.381966 
L 14.195774 58.763932 
L 16.097887 60.618034 
L 15.648859 63.236068 
L 18 62 
L 20.351141 63.236068 
L 19.902113 60.618034 
L 21.804226 58.763932 
L 19.175571 58.381966 
L 18 56 
M 30 56 
L 28.824429 58.381966 
L 26.195774 58.763932 
L 28.097887 60.618034 
L 27.648859 63.236068 
L 30 62 
L 32.351141 63.236068 
L 31.902113 60.618034 
L 33.804226 58.763932 
L 31.175571 58.381966 
L 30 56 
M 42 56 
L 40.824429 58.381966 
L 38.195774 58.763932 
L 40.097887 60.618034 
L 39.648859 63.236068 
L 42 62 
L 44.351141 63.236068 
L 43.902113 60.618034 
L 45.804226 58.763932 
L 43.175571 58.381966 
L 42 56 
M 54 56 
L 52.824429 58.381966 
L 50.195774 58.763932 
L 52.097887 60.618034 
L 51.648859 63.236068 
L 54 62 
L 56.351141 63.236068 
L 55.902113 60.618034 
L 57.804226 58.763932 
L 55.175571 58.381966 
L 54 56 
M 66 56 
L 64.824429 58.381966 
L 62.195774 58.763932 
L 64.097887 60.618034 
L 63.648859 63.236068 
L 66 62 
L 68.351141 63.236068 
L 67.902113 60.618034 
L 69.804226 58.763932 
L 67.175571 58.381966 
L 66 56 
M 0 44 
L -1.175571 46.381966 
L -3.804226 46.763932 
L -1.902113 48.618034 
L -2.351141 51.236068 
L -0 50 
L 2.351141 51.236068 
L 1.902113 48.618034 
L 3.804226 46.763932 
L 1.175571 46.381966 
L 0 44 
M 12 44 
L 10.824429 46.381966 
L 8.195774 46.763932 
L 10.097887 48.618034 
L 9.648859 51.236068 
L 12 50 
L 14.351141 51.236068 
L 13.902113 48.618034 
L 15.804226 46.763932 
L 13.175571 46.381966 
L 12 44 
M 24 44 
L 22.824429 46.381966 
L 20.195774 46.763932 
L 22.097887 48.618034 
L 21.648859 51.236068 
L 24 50 
L 26.351141 51.236068 
L 25.902113 48.618034 
L 27.804226 46.763932 
L 25.175571 46.381966 
L 24 44 
M 36 44 
L 34.824429 46.381966 
L 32.195774 46.763932 
L 34.097887 48.618034 
L 33.648859 51.236068 
L 36 50 
L 38.351141 51.236068 
L 37.902113 48.618034 
L 39.804226 46.763932 
L 37.175571 46.381966 
L 36 44 
M 48 44 
L 46.824429 46.381966 
L 44.195774 46.763932 
L 46.097887 48.618034 
L 45.648859 51.236068 
L 48 50 
L 50.351141 51.236068 
L 49.902113 48.618034 
L 51.804226 46.763932 
L 49.175571 46.381966 
L 48 44 
M 60 44 
L 58.824429 46.381966 
L 56.195774 46.763932 
L 58.097887 48.618034 
L 57.648859 51.236068 
L 60 50 
L 62.351141 51.236068 
L 61.902113 48.618034 
L 63.804226 46.763932 
L 61.175571 46.381966 
L 60 44 
M 72 44 
L 70.824429 46.381966 
L 68.195774 46.763932 
L 70.097887 48.618034 
L 69.648859 51.236068 
L 72 50 
L 74.351141 51.236068 
L 73.902113 48.618034 
L 75.804226 46.763932 
L 73.175571 46.381966 
L 72 44 
M 6 32 
L 4.824429 34.381966 
L 2.195774 34.763932 
L 4.097887 36.618034 
L 3.648859 39.236068 
L 6 38 
L 8.351141 39.236068 
L 7.902113 36.618034 
L 9.804226 34.763932 
L 7.175571 34.381966 
L 6 32 
M 18 32 
L 16.824429 34.381966 
L 14.195774 34.763932 
L 16.097887 36.618034 
L 15.648859 39.236068 
L 18 38 
L 20.351141 39.236068 
L 19.902113 36.618034 
L 21.804226 34.763932 
L 19.175571 34.381966 
L 18 32 
M 30 32 
L 28.824429 34.381966 
L 26.195774 34.763932 
L 28.097887 36.618034 
L 27.648859 39.236068 
L 30 38 
L 32.351141 39.236068 
L 31.902113 36.618034 
L 33.804226 34.763932 
L 31.175571 34.381966 
L 30 32 
M 42 32 
L 40.824429 34.381966 
L 38.195774 34.763932 
L 40.097887 36.618034 
L 39.648859 39.236068 
L 42 38 
L 44.351141 39.236068 
L 43.902113 36.618034 
L 45.804226 34.763932 
L 43.175571 34.381966 
L 42 32 
M 54 32 
L 52.824429 34.381966 
L 50.195774 34.763932 
L 52.097887 36.618034 
L 51.648859 39.236068 
L 54 38 
L 56.351141 39.236068 
L 55.902113 36.618034 
L 57.804226 34.763932 
L 55.175571 34.381966 
L 54 32 
M 66 32 
L 64.824429 34.381966 
L 62.195774 34.763932 
L 64.097887 36.618034 
L 63.648859 39.236068 
L 66 38 
L 68.351141 39.236068 
L 67.902113 36.618034 
L 69.804226 34.763932 
L 67.175571 34.381966 
L 66 32 
M 0 20 
L -1.175571 22.381966 
L -3.804226 22.763932 
L -1.902113 24.618034 
L -2.351141 27.236068 
L -0 26 
L 2.351141 27.236068 
L 1.902113 24.618034 
L 3.804226 22.763932 
L 1.175571 22.381966 
L 0 20 
M 12 20 
L 10.824429 22.381966 
L 8.195774 22.763932 
L 10.097887 24.618034 
L 9.648859 27.236068 
L 12 26 
L 14.351141 27.236068 
L 13.902113 24.618034 
L 15.804226 22.763932 
L 13.175571 22.381966 
L 12 20 
M 24 20 
L 22.824429 22.381966 
L 20.195774 22.763932 
L 22.097887 24.618034 
L 21.648859 27.236068 
L 24 26 
L 26.351141 27.236068 
L 25.902113 24.618034 
L 27.804226 22.763932 
L 25.175571 22.381966 
L 24 20 
M 36 20 
L 34.824429 22.381966 
L 32.195774 22.763932 
L 34.097887 24.618034 
L 33.648859 27.236068 
L 36 26 
L 38.351141 27.236068 
L 37.902113 24.618034 
L 39.804226 22.763932 
L 37.175571 22.381966 
L 36 20 
M 48 20 
L 46.824429 22.381966 
L 44.195774 22.763932 
L 46.097887 24.618034 
L 45.648859 27.236068 
L 48 26 
L 50.351141 27.236068 
L 49.902113 24.618034 
L 51.804226 22.763932 
L 49.175571 22.381966 
L 48 20 
M 60 20 
L 58.824429 22.381966 
L 56.195774 22.763932 
L 58.097887 24.618034 
L 57.648859 27.236068 
L 60 26 
L 62.351141 27.236068 
L 61.902113 24.618034 
L 63.804226 22.763932 
L 61.175571 22.381966 
L 60 20 
M 72 20 
L 70.824429 22.381966 
L 68.195774 22.763932 
L 70.097887 24.618034 
L 69.648859 27.236068 
L 72 26 
L 74.351141 27.236068 
L 73.902113 24.618034 
L 75.804226 22.763932 
L 73.175571 22.381966 
L 72 20 
M 6 8 
L 4.824429 10.381966 
L 2.195774 10.763932 
L 4.097887 12.618034 
L 3.648859 15.236068 
L 6 14 
L 8.351141 15.236068 
L 7.902113 12.618034 
L 9.804226 10.763932 
L 7.175571 10.381966 
L 6 8 
M 18 8 
L 16.824429 10.381966 
L 14.195774 10.763932 
L 16.097887 12.618034 
L 15.648859 15.236068 
L 18 14 
L 20.351141 15.236068 
L 19.902113 12.618034 
L 21.804226 10.763932 
L 19.175571 10.381966 
L 18 8 
M 30 8 
L 28.824429 10.381966 
L 26.195774 10.763932 
L 28.097887 12.618034 
L 27.648859 15.236068 
L 30 14 
L 32.351141 15.236068 
L 31.902113 12.618034 
L 33.804226 10.763932 
L 31.175571 10.381966 
L 30 8 
M 42 8 
L 40.824429 10.381966 
L 38.195774 10.763932 
L 40.097887 12.618034 
L 39.648859 15.236068 
L 42 14 
L 44.351141 15.236068 
L 43.902113 12.618034 
L 45.804226 10.763932 
L 43.175571 10.381966 
L 42 8 
M 54 8 
L 52.824429 10.381966 
L 50.195774 10.763932 
L 52.097887 12.618034 
L 51.648859 15.236068 
L 54 14 
L 56.351141 15.236068 
L 55.902113 12.618034 
L 57.804226 10.763932 
L 55.175571 10.381966 
L 54 8 
M 66 8 
L 64.824429 10.381966 
L 62.195774 10.763932 
L 64.097887 12.618034 
L 63.648859 15.236068 
L 66 14 
L 68.351141 15.236068 
L 67.902113 12.618034 
L 69.804226 10.763932 
L 67.175571 10.381966 
L 66 8 
M 0 -4 
L -1.175571 -1.618034 
L -3.804226 -1.236068 
L -1.902113 0.618034 
L -2.351141 3.236068 
L -0 2 
L 2.351141 3.236068 
L 1.902113 0.618034 
L 3.804226 -1.236068 
L 1.175571 -1.618034 
L 0 -4 
M 12 -4 
L 10.824429 -1.618034 
L 8.195774 -1.236068 
L 10.097887 0.618034 
L 9.648859 3.236068 
L 12 2 
L 14.351141 3.236068 
L 13.902113 0.618034 
L 15.804226 -1.236068 
L 13.175571 -1.618034 
L 12 -4 
M 24 -4 
L 22.824429 -1.618034 
L 20.195774 -1.236068 
L 22.097887 0.618034 
L 21.648859 3.236068 
L 24 2 
L 26.351141 3.236068 
L 25.902113 0.618034 
L 27.804226 -1.236068 
L 25.175571 -1.618034 
L 24 -4 
M 36 -4 
L 34.824429 -1.618034 
L 32.195774 -1.236068 
L 34.097887 0.618034 
L 33.648859 3.236068 
L 36 2 
L 38.351141 3.236068 
L 37.902113 0.618034 
L 39.804226 -1.236068 
L 37.175571 -1.618034 
L 36 -4 
M 48 -4 
L 46.824429 -1.618034 
L 44.195774 -1.236068 
L 46.097887 0.618034 
L 45.648859 3.236068 
L 48 2 
L 50.351141 3.236068 
L 49.902113 0.618034 
L 51.804226 -1.236068 
L 49.175571 -1.618034 
L 48 -4 
M 60 -4 
L 58.824429 -1.618034 
L 56.195774 -1.236068 
L 58.097887 0.618034 
L 57.648859 3.236068 
L 60 2 
L 62.351141 3.236068 
L 61.902113 0.618034 
L 63.804226 -1.236068 
L 61.175571 -1.618034 
L 60 -4 
M 72 -4 
L 70.824429 -1.618034 
L 68.195774 -1.236068 
L 70.097887 0.618034 
L 69.648859 3.236068 
L 72 2 
L 74.351141 3.236068 
L 73.902113 0.618034 
L 75.804226 -1.236068 
L 73.175571 -1.618034 
L 72 -4 
" style="fill: #000000; stroke: #000000; stroke-width: 1.0; stroke-linecap: butt; stroke-linejoin: miter"/>
  </pattern>
 </defs>
</svg>
